<svg width="80" height="79" viewBox="0 0 80 79" fill="none" xmlns="http://www.w3.org/2000/svg">
<path fill-rule="evenodd" clip-rule="evenodd" d="M62.0784 78.7558C74.364 78.7558 79.7884 76.2562 79.7957 70.5386C79.7957 70.5459 79.7957 70.5459 79.7957 70.5533V70.5239C79.7957 70.5313 79.7957 70.5313 79.7957 70.5386C79.7884 67.9583 78.7328 66.2943 75.207 63.7947C72.3995 61.8229 71.2559 59.9243 69.8925 55.4529L55.2026 8.32644C53.4507 2.4842 50.8338 0.930176 43.5475 0.930176H26.5778C18.4559 0.930176 15.5384 2.68212 15.5384 7.38083C15.5384 12.3874 17.9281 15.085 22.8247 16.0306L23.7703 16.2285L11.001 55.7021C9.85745 59.2646 7.96624 61.9622 4.55032 64.8796C1.62554 67.1887 0.687256 68.86 0.687256 71.1397C0.687256 76.2562 5.58389 78.7632 15.6777 78.7632C26.3872 78.7632 31.086 76.2562 31.086 71.4769C31.086 68.9772 29.7225 67.5258 27.4428 66.0525C25.7715 64.9163 24.6353 63.7727 24.6353 62.1014C24.6353 61.1558 24.8552 60.2102 25.0531 59.5945L26.4166 55.5335C27.0543 53.5616 28.0879 52.726 30.4775 52.726H44.9695C47.4765 52.726 48.7226 53.8695 49.4483 55.9513L50.284 58.7588C50.6212 59.5945 50.8118 60.7307 50.8118 61.6763C50.8118 63.4575 49.5583 65.0116 47.777 66.1551C45.1894 67.907 44.3538 68.9626 44.3538 71.7701C44.3538 76.6667 49.7782 78.7558 62.0784 78.7558ZM47.2199 35.0307C48.0556 34.0044 48.6347 32.6923 48.8912 31.2776C49.0891 30.0827 48.9719 28.8879 48.5834 27.7737C48.1949 26.6595 47.5571 25.7139 46.7215 24.9955C45.8858 24.2698 44.9109 23.852 43.8846 23.742C42.9097 23.6834 41.9348 23.94 41.1065 24.519C40.2195 25.1568 39.4645 26.0218 38.9074 27.048C38.3503 25.9924 37.6026 25.1275 36.7083 24.519C35.8726 23.9326 34.8977 23.6541 33.9301 23.742C32.9039 23.852 31.9289 24.2991 31.0933 24.9955C30.2576 25.6919 29.6199 26.6668 29.2314 27.7737C28.8429 28.8879 28.7329 30.1121 28.9235 31.2776C29.1728 32.6703 29.7592 33.9751 30.5948 35.0307C31.2399 35.9103 32.1489 36.5994 33.1971 37.3837C33.2777 37.4423 33.351 37.501 33.4317 37.5596L33.4536 37.5743C35.1763 38.8498 37.0821 40.2645 38.6948 42.8448C38.7534 42.9254 38.8341 42.984 38.9147 42.984C38.9953 42.984 39.0833 42.9254 39.1346 42.8448C40.696 40.3451 42.5652 38.9377 44.2218 37.6916C44.2805 37.6476 44.3391 37.6036 44.3978 37.5596C44.4344 37.5303 44.4637 37.5083 44.5004 37.479C45.5853 36.6507 46.5235 35.947 47.2199 35.0307Z" fill="#006EAD"/>
</svg>
