<svg width="91" height="90" viewBox="0 0 91 90" fill="none" xmlns="http://www.w3.org/2000/svg">
<path fill-rule="evenodd" clip-rule="evenodd" d="M70.5298 89.1427C84.6018 89.1427 90.815 86.2796 90.8234 79.7305C90.8234 79.7389 90.8234 79.7389 90.8234 79.7473V79.7137C90.8234 79.7221 90.8234 79.7221 90.8234 79.7305C90.815 76.775 89.606 74.8691 85.5674 72.006C82.3517 69.7474 81.0418 67.5728 79.4801 62.4511L62.6541 8.47179C60.6474 1.78 57.65 0 49.3041 0H29.8669C20.5639 0 17.2222 2.0067 17.2222 7.38868C17.2222 13.1233 19.9593 16.2131 25.568 17.2962L26.6511 17.5229L12.0249 62.7366C10.7151 66.8171 8.54888 69.9069 4.63624 73.2486C1.28615 75.8934 0.211426 77.8078 0.211426 80.419C0.211426 86.2796 5.8201 89.1511 17.3817 89.1511C29.6486 89.1511 35.0306 86.2796 35.0306 80.8052C35.0306 77.9421 33.4689 76.2797 30.8576 74.592C28.9433 73.2906 27.6419 71.9808 27.6419 70.0665C27.6419 68.9833 27.8938 67.9002 28.1205 67.195L29.6822 62.5435C30.4126 60.2849 31.5965 59.3277 34.3337 59.3277H50.933C53.8045 59.3277 55.2319 60.6375 56.0631 63.022L57.0203 66.2378C57.4065 67.195 57.6248 68.4964 57.6248 69.5795C57.6248 71.6198 56.189 73.3998 54.1488 74.7096C51.1849 76.7163 50.2277 77.9253 50.2277 81.1411C50.2277 86.7498 56.4409 89.1427 70.5298 89.1427ZM53.5106 39.0592C54.4678 37.8837 55.1311 36.3808 55.425 34.7604C55.6517 33.3918 55.5173 32.0232 55.0723 30.747C54.6273 29.4707 53.8969 28.3876 52.9397 27.5648C51.9825 26.7336 50.8658 26.255 49.6903 26.129C48.5736 26.0619 47.457 26.3557 46.5082 27.019C45.4922 27.7495 44.6274 28.7403 43.9893 29.9157C43.3512 28.7067 42.4948 27.7159 41.4705 27.019C40.5133 26.3473 39.3966 26.0283 38.2883 26.129C37.1128 26.255 35.9961 26.7672 35.0389 27.5648C34.0818 28.3624 33.3513 29.4791 32.9063 30.747C32.4613 32.0232 32.3354 33.4254 32.5537 34.7604C32.8391 36.3556 33.5108 37.8502 34.468 39.0592C35.2069 40.0668 36.248 40.856 37.4487 41.7544C37.541 41.8216 37.625 41.8887 37.7173 41.9559L37.7425 41.9727C39.7156 43.4337 41.8987 45.0541 43.7458 48.0096C43.813 48.102 43.9053 48.1691 43.9977 48.1691C44.0901 48.1691 44.1908 48.102 44.2496 48.0096C46.038 45.1465 48.179 43.5344 50.0766 42.1071C50.1437 42.0567 50.2109 42.0063 50.2781 41.9559C50.3201 41.9223 50.3537 41.8971 50.3956 41.8636C51.6383 40.9148 52.713 40.1087 53.5106 39.0592Z" fill="white"/>
</svg>
